<?xml version="1.0" encoding="utf-8"?>
<!-- Generator: Adobe Illustrator 26.4.1, SVG Export Plug-In . SVG Version: 6.00 Build 0)  -->
<svg version="1.1" id="Layer_1" xmlns="http://www.w3.org/2000/svg" xmlns:xlink="http://www.w3.org/1999/xlink" x="0px" y="0px"
	 viewBox="0 0 20.5 20.7" style="enable-background:new 0 0 20.5 20.7;" xml:space="preserve">
<style type="text/css">
	.st0{fill:#3DBBC4;}
</style>
<path id="Icon_ionic-ios-search" class="st0" d="M20.3,19.2l-5.7-5.8c2.8-3.5,2.2-8.7-1.3-11.5S4.6-0.3,1.8,3.3s-2.2,8.7,1.3,11.5
	c1.4,1.1,3.2,1.8,5.1,1.8c1.9,0,3.7-0.7,5.1-1.8l5.7,5.8c0.3,0.4,0.9,0.4,1.2,0c0,0,0,0,0,0C20.6,20.1,20.6,19.5,20.3,19.2z
	 M8.2,14.7c-1.7,0-3.3-0.7-4.5-1.9c-2.5-2.5-2.5-6.6,0-9.1c2.5-2.5,6.5-2.5,9,0c0,0,0,0,0,0c2.5,2.5,2.5,6.6,0,9.1
	C11.5,14,9.9,14.7,8.2,14.7z"/>
</svg>
