<?xml version="1.0" encoding="utf-8"?>
<!-- Generator: Adobe Illustrator 26.5.0, SVG Export Plug-In . SVG Version: 6.00 Build 0)  -->
<svg version="1.1" id="Layer_1" xmlns="http://www.w3.org/2000/svg" xmlns:xlink="http://www.w3.org/1999/xlink" x="0px" y="0px"
	 viewBox="0 0 46.7 46.7" style="enable-background:new 0 0 46.7 46.7;" xml:space="preserve">
<style type="text/css">
	.st0{fill:#414141;}
	.st1{fill:#3DBBC4;}
</style>
<g id="chart-pie" transform="translate(-2.378 20.445) rotate(-45)">
	<path id="패스_559" class="st0" d="M2.7,32.9C-4.2,26-4.2,14.9,2.7,8c5.7-5.7,14.5-6.8,21.4-2.7l2.1-2.1C16.7-2.9,4-0.1-2.1,9.4
		s-3.3,22.2,6.2,28.3c6.7,4.3,15.3,4.3,22.1,0l-2.1-2.1C17.1,39.7,8.4,38.6,2.7,32.9L2.7,32.9z"/>
	<path class="st1" d="M35.4,28.9c2.2-5.4,2.2-11.4,0-16.8c-0.1-0.2-0.2-0.4-0.2-0.6c-1.1-2.4-2.6-4.7-4.5-6.5l-1-1l-1,1L13.1,20.5
		L28.6,36l1,1l1-1c1.9-1.9,3.4-4,4.5-6.4C35.2,29.3,35.3,29.1,35.4,28.9L35.4,28.9z"/>
</g>
</svg>
