<?xml version="1.0" encoding="utf-8"?>
<!-- Generator: Adobe Illustrator 27.0.0, SVG Export Plug-In . SVG Version: 6.00 Build 0)  -->
<svg version="1.1" id="Layer_1" xmlns="http://www.w3.org/2000/svg" xmlns:xlink="http://www.w3.org/1999/xlink" x="0px" y="0px"
	 viewBox="0 0 31.5 31.5" style="enable-background:new 0 0 31.5 31.5;" xml:space="preserve">
<style type="text/css">
	.st0{fill:#FFFFFF;}
	.st1{fill:#6B3FB7;}
</style>
<path class="st0" d="M15.8,0.4C7.3,0.4,0.4,7.3,0.4,15.8c0,8.5,6.9,15.5,15.4,15.5c8.5,0,15.5-6.9,15.5-15.5
	C31.2,7.3,24.3,0.4,15.8,0.4z"/>
<g>
	<path class="st1" d="M18.2,14.2v3.3c0,0.5,0.4,0.7,0.7,0.7s0.7-0.2,0.7-0.7v-3.3C19.6,13.2,18.2,13.2,18.2,14.2z"/>
	<path class="st1" d="M24.1,13.5v4.7c0,0.5,0.4,0.7,0.7,0.7s0.7-0.2,0.7-0.7v-4.7C25.5,12.6,24.1,12.6,24.1,13.5z"/>
	<path class="st1" d="M6.6,14c-0.1,0.1-0.2,0.3-0.2,0.5v2.6c0,0.5,0.4,0.7,0.7,0.7c0.2,0,0.4-0.1,0.5-0.2c0.1-0.1,0.2-0.3,0.2-0.5
		v-2.6C7.8,13.8,7,13.7,6.6,14z"/>
	<path class="st1" d="M12.3,9.7v12.1c0,0.5,0.4,0.7,0.7,0.7s0.7-0.2,0.7-0.7V9.7C13.7,8.8,12.3,8.8,12.3,9.7z"/>
	<path class="st1" d="M21.1,11.8v8.1c0,0.4,0.4,0.6,0.7,0.6s0.7-0.2,0.7-0.6v-8.1C22.6,11,21.1,11,21.1,11.8z"/>
	<path class="st1" d="M15.2,11.9v7.9c0,0.5,0.4,0.7,0.7,0.7c0.2,0,0.4-0.1,0.5-0.2c0.1-0.1,0.2-0.3,0.2-0.5v-7.9
		C16.7,11,15.2,11,15.2,11.9z"/>
	<path class="st1" d="M9.3,12.3v6.9c0,0.5,0.4,0.7,0.7,0.7c0.2,0,0.4-0.1,0.5-0.2c0.1-0.1,0.2-0.3,0.2-0.5v-6.9
		C10.8,11.4,9.3,11.4,9.3,12.3z"/>
</g>
</svg>
