<svg xmlns="http://www.w3.org/2000/svg" width="20.508" height="20.677" viewBox="0 0 20.508 20.677">
  <path id="Icon_ionic-ios-search" data-name="Icon ionic-ios-search" d="M24.767,23.674l-5.7-5.8a8.161,8.161,0,1,0-6.387,3.1A8.108,8.108,0,0,0,17.83,19.13L23.5,24.9a.873.873,0,0,0,1.239.032A.9.9,0,0,0,24.767,23.674ZM12.676,19.2a6.353,6.353,0,0,1-4.539-1.895,6.5,6.5,0,0,1,0-9.141,6.385,6.385,0,0,1,9.079,0,6.5,6.5,0,0,1,0,9.141A6.353,6.353,0,0,1,12.676,19.2Z" transform="translate(-4.5 -4.493)" fill="#24cd88"/>
</svg>
