<?xml version="1.0" encoding="UTF-8"?><svg id="a" xmlns="http://www.w3.org/2000/svg" viewBox="0 0 20.03 21.36"><defs><style>.c{fill:#24cd88;}</style></defs><path id="b" class="c" d="M6.68,8.01h2.67v2.67h-2.67v-2.67Zm4,0h2.67v2.67h-2.67v-2.67Zm4,0h2.67v2.67h-2.67v-2.67ZM2.67,16.02h2.67v2.67H2.67v-2.67Zm4,0h2.67v2.67h-2.66v-2.67Zm3.99,0h2.67v2.67h-2.67v-2.67Zm-4-4h2.67v2.67h-2.66v-2.67Zm3.99,0h2.67v2.67h-2.67v-2.67Zm4,0h2.67v2.67h-2.67v-2.67Zm-12.02,0h2.67v2.67H2.67v-2.67ZM17.35,0V1.34h-2.67V0H5.34V1.34H2.67V0H0V21.36H20.03V0h-2.68Zm1.34,20.02H1.33V5.34H18.69v14.68Z"/></svg>